#!OML:ASF F:\twosubjects\two\Thursday\Session 1\justin.ASF
:FULLY-SPECIFIED
:DEGREES
227
root 11.0875 17.0971 1.78499 13.3668 -81.2574 -2.25734
lowerback 15.8236 0.604594 -2.37175
upperback 7.32373 0.144438 2.0855
thorax -1.10887 -0.170427 3.51119
lowerneck -23.3772 0.677313 -7.97002
upperneck -3.7537 2.43886 2.07622
head 2.2861 1.19817 2.10096
rclavicle -2.04748e-014 3.18055e-015
rhumerus -45.6998 -21.5779 -19.0083
rradius 36.055
rwrist -0.851163
rhand -34.9691 27.4097
rfingers 7.12502
rthumb -8.11496 -2.41449
lclavicle -2.04748e-014 3.18055e-015
lhumerus -41.1485 7.32576 23.5674
lradius 35.0993
lwrist -15.4003
lhand -23.583 46.268
lfingers 7.12502
lthumb 2.88007 76.2283
rfemur -36.8224 -6.76618 9.41933
rtibia 49.4492
rfoot -19.9386 -6.82791
rtoes -23.6311
lfemur -30.2657 15.6729 -7.77308
ltibia 51.8228
lfoot -19.9123 -11.5613
ltoes -9.39473
228
root 11.0666 17.083 1.77347 11.4121 -80.9097 -0.600825
lowerback 16.2446 0.553413 -2.31252
upperback 7.28391 0.0745316 1.93578
thorax -1.36745 -0.196947 3.33463
lowerneck -22.9411 0.603118 -8.08802
upperneck -3.8357 2.33987 2.24809
head 2.20418 1.16372 2.16178
rclavicle 1.19271e-015 8.74653e-015
rhumerus -46.3419 -21.2888 -19.6223
rradius 35.6125
rwrist -0.478054
rhand -34.9643 26.777
rfingers 7.12502
rthumb -8.11028 -3.04732
lclavicle 1.19271e-015 8.74653e-015
lhumerus -42.2493 5.63242 25.0452
lradius 34.5453
lwrist -15.9549
lhand -23.0252 46.3026
lfingers 7.12502
lthumb 3.41881 76.255
rfemur -36.6327 -7.59982 9.31877
rtibia 50.136
rfoot -20.3559 -6.49667
rtoes -23.4227
lfemur -30.1255 15.5555 -8.68857
ltibia 51.7397
lfoot -19.9732 -8.11468
ltoes -8.56001
229
root 11.0435 17.0571 1.75781 12.1297 -80.4238 -1.73386
lowerback 16.6968 0.509282 -1.93702
upperback 7.33265 0.0579735 1.99653
thorax -1.55231 -0.200477 3.19185
lowerneck -21.9691 0.628832 -7.9896
upperneck -4.78481 2.2594 1.78114
head 2.11081 1.11128 2.21834
rclavicle -3.97569e-015 2.0276e-014
rhumerus -47.1727 -20.7967 -20.2578
rradius 35.5877
rwrist -0.555253
rhand -34.5075 25.7025
rfingers 7.12502
rthumb -7.66945 -4.13841
lclavicle -3.97569e-015 2.0276e-014
lhumerus -43.4234 4.63329 26.5154
lradius 34.0263
lwrist -16.5029
lhand -22.1527 46.4156
lfingers 7.12502
lthumb 4.26136 76.3527
rfemur -36.3015 -8.17639 9.66389
rtibia 50.7784
rfoot -20.7808 -6.42818
rtoes -23.18
lfemur -29.8128 15.4193 -8.95138
ltibia 51.5198
lfoot -20.0161 -4.3989
ltoes -10.0696
230
root 11.0137 17.0271 1.72837 13.3517 -80.2069 -2.95305
lowerback 16.5238 0.606414 -1.96223
upperback 7.42344 0.183518 2.16297
thorax -1.37395 -0.146793 3.35839
lowerneck -21.7677 0.59849 -7.96645
upperneck -5.09915 2.19232 1.42184
head 1.96853 1.06622 2.07479
rclavicle -3.37934e-015 0
rhumerus -47.9313 -20.505 -20.8722
rradius 35.6405
rwrist -0.634028
rhand -34.1755 25.3995
rfingers 7.12502
rthumb -7.34898 -4.45285
lclavicle -3.37934e-015 0
lhumerus -44.5346 4.34075 27.9044
lradius 33.4561
lwrist -16.8152
lhand -21.0044 46.4584
lfingers 7.12502
lthumb 5.37012 76.3704
rfemur -36.5935 -8.50951 10.1079
rtibia 51.4675
rfoot -21.0734 -6.43331
rtoes -22.7309
lfemur -29.7075 15.5877 -9.1032
ltibia 51.1563
lfoot -20.2858 -1.55901
ltoes -14.9434
231
root 10.9794 17.0081 1.70423 11.6363 -80.0088 -1.09422
lowerback 16.2559 0.648877 -2.48059
upperback 7.43938 0.172878 2.15734
thorax -1.21506 -0.163351 3.64735
lowerneck -21.6773 0.612226 -8.25228
upperneck -5.10121 2.2719 1.55364
head 1.94593 1.11739 2.17738
rclavicle -2.48481e-014 1.03368e-014
rhumerus -48.4885 -19.9746 -21.7072
rradius 35.6541
rwrist -0.857856
rhand -34.2792 25.4936
rfingers 7.12502
rthumb -7.44907 -4.35525
lclavicle -2.48481e-014 1.03368e-014
lhumerus -45.7389 4.02006 29.1807
lradius 32.8396
lwrist -16.5911
lhand -19.7825 46.5094
lfingers 7.12502
lthumb 6.5498 76.3881
rfemur -37.0481 -9.31176 10.035
rtibia 52.2854
rfoot -21.2671 -6.15066
rtoes -22.8585
lfemur -29.5215 15.402 -9.64594
ltibia 50.8223
lfoot -21.0968 0.390106
ltoes -19.2983
232
root 10.9377 16.9919 1.67614 10.5125 -79.6947 -0.106829
lowerback 16.3988 0.70147 -2.60368
upperback 7.37633 0.221812 1.9563
thorax -1.36095 -0.132281 3.4976
lowerneck -21.5486 0.513373 -8.33945
upperneck -4.82731 2.16729 1.88977
head 2.02584 1.08151 2.30413
rclavicle 4.96962e-015 3.97569e-016
rhumerus -49.6171 -19.5367 -22.5879
rradius 35.8319
rwrist -1.14829
rhand -34.3187 25.6137
rfingers 7.12502
rthumb -7.48718 -4.2338
lclavicle 4.96962e-015 3.97569e-016
lhumerus -46.6824 3.62532 29.9882
lradius 32.1725
lwrist -16.3564
lhand -18.5134 46.3869
lfingers 7.12502
lthumb 7.77486 76.224
rfemur -37.1666 -10.1722 10.0858
rtibia 53.1704
rfoot -21.4015 -5.91618
rtoes -24.057
lfemur -28.8781 14.8379 -9.69261
ltibia 50.3339
lfoot -21.9041 1.36331
ltoes -19.5963
233
root 10.9477 16.9433 1.73242 9.66063 -77.5395 1.39836
lowerback 15.7287 -0.184338 -1.31537
upperback 7.30122 -0.72585 1.81215
thorax -1.03454 -0.566962 2.76303
lowerneck -21.4862 0.515896 -8.2855
upperneck -4.88967 2.15674 1.68878
head 1.9939 1.06893 2.22137
rclavicle -3.97569e-016 4.53229e-014
rhumerus -50.1623 -19.7366 -23.1712
rradius 35.8081
rwrist -1.18533
rhand -33.8622 25.6885
rfingers 7.12502
rthumb -7.04659 -4.17425
lclavicle -3.97569e-016 4.53229e-014
lhumerus -47.6682 4.3083 30.6908
lradius 31.4556
lwrist -16.7379
lhand -16.8997 46.4424
lfingers 7.12502
lthumb 9.33211 76.2159
rfemur -38.0606 -13.2703 10.1081
rtibia 54.202
rfoot -21.2867 -5.33211
rtoes -25.8002
lfemur -30.0386 12.1183 -10.135
ltibia 49.9232
lfoot -21.7376 2.88163
ltoes -22.4849
